<svg xmlns="http://www.w3.org/2000/svg" xmlns:xlink="http://www.w3.org/1999/xlink" version="1.1" width="940" height="788" viewBox="0 0 940 788" xml:space="preserve">
<desc>Created with Fabric.js 3.5.0</desc>
<defs>
</defs>
<rect x="0" y="0" width="100%" height="100%" fill="rgba(255,255,255,0)"/>
<g transform="matrix(21.0759 0 0 21.0759 480.2611 377.1373)" id="992243">
<path style="stroke: none; stroke-width: 1; stroke-dasharray: none; stroke-linecap: butt; stroke-dashoffset: 0; stroke-linejoin: miter; stroke-miterlimit: 4; is-custom-font: none; font-file-url: none; fill: rgb(156,39,176); fill-rule: nonzero; opacity: 1;" vector-effect="non-scaling-stroke" transform=" translate(-16.0248, -16.0039)" d="M 9.05 10.05 a 1 1 0 0 0 1.42 0 l 4.6 -4.6 V 29 a 1 1 0 0 0 2 0 V 5.48 l 4.57 4.57 a 1 1 0 0 0 1.41 -1.41 L 16.69 2.27 a 0.9 0.9 0 0 0 -1.27 0 L 9.05 8.64 A 1 1 0 0 0 9.05 10.05 Z" stroke-linecap="round"/>
</g>
<g transform="matrix(18.5701 0 0 14.6776 173.6428 458.7355)" id="392691">
<path style="stroke: none; stroke-width: 1; stroke-dasharray: none; stroke-linecap: butt; stroke-dashoffset: 0; stroke-linejoin: miter; stroke-miterlimit: 4; is-custom-font: none; font-file-url: none; fill: rgb(156,39,176); fill-rule: nonzero; opacity: 1;" vector-effect="non-scaling-stroke" transform=" translate(-16.0248, -16.0039)" d="M 9.05 10.05 a 1 1 0 0 0 1.42 0 l 4.6 -4.6 V 29 a 1 1 0 0 0 2 0 V 5.48 l 4.57 4.57 a 1 1 0 0 0 1.41 -1.41 L 16.69 2.27 a 0.9 0.9 0 0 0 -1.27 0 L 9.05 8.64 A 1 1 0 0 0 9.05 10.05 Z" stroke-linecap="round"/>
</g>
<g transform="matrix(18.57 0 0 14.6776 766.3576 466.6896)" id="339456">
<path style="stroke: none; stroke-width: 1; stroke-dasharray: none; stroke-linecap: butt; stroke-dashoffset: 0; stroke-linejoin: miter; stroke-miterlimit: 4; is-custom-font: none; font-file-url: none; fill: rgb(156,39,176); fill-rule: nonzero; opacity: 1;" vector-effect="non-scaling-stroke" transform=" translate(-16.0248, -16.0039)" d="M 9.05 10.05 a 1 1 0 0 0 1.42 0 l 4.6 -4.6 V 29 a 1 1 0 0 0 2 0 V 5.48 l 4.57 4.57 a 1 1 0 0 0 1.41 -1.41 L 16.69 2.27 a 0.9 0.9 0 0 0 -1.27 0 L 9.05 8.64 A 1 1 0 0 0 9.05 10.05 Z" stroke-linecap="round"/>
</g>
</svg>